<?xml version="1.0" encoding="UTF-8"?><svg id="a" xmlns="http://www.w3.org/2000/svg" viewBox="0 0 308.59 326.25"><defs><style>.b{fill:#fff;}</style></defs><path class="b" d="M231.81,61.84c-9.46,0-17.13,7.67-17.13,17.13s7.67,17.13,17.13,17.13,17.13-7.67,17.13-17.13-7.67-17.13-17.13-17.13Z"/><path class="b" d="M155.66,83.8c-39.67,0-71.95,32.28-71.95,71.95s32.28,71.95,71.95,71.95,71.95-32.28,71.95-71.95-32.28-71.95-71.95-71.95Zm0,118.04c-25.42,0-46.09-20.67-46.09-46.09s20.68-46.09,46.09-46.09,46.09,20.67,46.09,46.09-20.67,46.09-46.09,46.09Z"/><path class="b" d="M212.78,301.84H96.13c-48.39,0-87.76-39.37-87.76-87.76V97.43C8.38,49.04,47.74,9.67,96.13,9.67h116.65c48.39,0,87.76,39.37,87.76,87.76v116.65c0,48.39-39.37,87.76-87.76,87.76ZM96.13,37.16c-33.24,0-60.27,27.03-60.27,60.27v116.65c0,33.24,27.04,60.27,60.27,60.27h116.65c33.24,0,60.28-27.04,60.28-60.27V97.43c0-33.24-27.04-60.27-60.28-60.27H96.13Z"/></svg>